<?xml version="1.0" standalone="no"?>
<!DOCTYPE svg PUBLIC "-//W3C//DTD SVG 20010904//EN"
 "http://www.w3.org/TR/2001/REC-SVG-20010904/DTD/svg10.dtd">
<svg version="1.0" xmlns="http://www.w3.org/2000/svg"
 width="1024.000000pt" height="1024.000000pt" viewBox="0 0 1024.000000 1024.000000"
 preserveAspectRatio="xMidYMid meet">
<metadata>
Created by potrace 1.14, written by Peter Selinger 2001-2017
</metadata>
<g transform="translate(0.000000,1024.000000) scale(0.100000,-0.100000)"
fill="#000000" stroke="none">
<path d="M4754 9355 c1 -8 6 -18 11 -22 4 -4 5 -3 2 4 -4 6 -2 13 5 15 8 3 6
6 -4 10 -10 4 -15 2 -14 -7z"/>
<path d="M4790 9363 c0 -6 8 -17 18 -24 16 -13 16 -13 2 6 -8 11 -16 22 -17
24 -2 2 -3 0 -3 -6z"/>
<path d="M4823 9349 c6 -10 14 -16 19 -13 11 7 -1 31 -16 31 -11 0 -12 -4 -3
-18z"/>
<path d="M4850 9358 c0 -3 9 -6 20 -5 11 1 20 5 20 9 0 3 -9 6 -20 5 -11 -1
-20 -5 -20 -9z"/>
<path d="M4905 9361 c3 -6 1 -12 -4 -12 -35 -4 -61 -20 -54 -33 4 -6 -1 -5
-10 3 -9 7 -17 10 -17 7 0 -4 -9 -2 -20 4 -11 6 -20 7 -20 2 0 -6 -9 -12 -20
-15 -11 -3 -18 -2 -15 3 3 4 -2 10 -10 14 -8 3 -14 2 -14 -2 3 -19 -2 -25 -11
-12 -6 9 -13 11 -17 5 -11 -14 -43 -15 -43 -1 0 6 -5 4 -10 -4 -9 -13 -10 -13
-10 0 0 9 -3 11 -8 5 -9 -13 -45 -13 -54 0 -4 6 -14 2 -23 -10 -9 -11 -14 -15
-11 -9 4 8 -3 11 -18 10 -13 0 -22 -4 -19 -8 2 -5 -3 -8 -11 -8 -9 0 -16 -5
-16 -11 0 -7 7 -8 18 -4 19 7 22 8 40 6 7 0 10 -6 6 -12 -4 -8 -9 -7 -15 2 -5
8 -9 9 -9 3 0 -13 -59 -13 -79 0 -10 7 -12 6 -6 -4 6 -10 4 -12 -9 -7 -14 6
-17 3 -12 -9 5 -14 4 -15 -8 -5 -20 17 -148 10 -154 -8 -3 -10 0 -11 9 -5 23
14 38 13 32 -3 -5 -12 -7 -12 -14 -1 -8 11 -13 5 -10 -14 0 -3 -7 -5 -17 -3
-11 1 -16 10 -15 24 2 13 -1 20 -7 16 -6 -3 -10 -15 -10 -26 0 -15 -7 -19 -36
-19 -25 0 -33 3 -28 13 6 9 4 9 -8 -1 -9 -7 -22 -12 -30 -11 -27 3 -39 -1 -32
-13 4 -7 3 -8 -5 -4 -7 5 -22 9 -35 10 -19 2 -22 -1 -20 -21 1 -15 -3 -23 -12
-23 -9 0 -13 4 -10 8 3 5 -1 9 -9 9 -8 0 -12 -4 -9 -9 3 -4 -4 -8 -15 -8 -10
0 -22 -6 -24 -12 -3 -7 -6 -4 -6 7 -1 15 -3 17 -10 6 -6 -9 -10 -10 -16 -2 -9
16 -35 -5 -35 -29 0 -19 -15 -21 -38 -6 -7 4 -12 4 -11 -1 4 -22 -2 -25 -16
-7 -15 18 -15 18 -8 0 5 -15 3 -17 -8 -11 -19 12 -49 14 -55 3 -3 -4 -10 -6
-15 -2 -6 3 -5 -3 2 -14 7 -12 9 -25 5 -29 -5 -4 -11 -2 -13 5 -3 6 -9 12 -14
12 -6 0 -7 -4 -4 -10 4 -6 -5 -10 -20 -10 -18 0 -24 4 -19 13 5 8 2 7 -10 -2
-13 -11 -14 -16 -4 -23 8 -5 2 -7 -17 -4 -27 5 -28 4 -12 -8 16 -12 16 -14 1
-20 -20 -8 -51 8 -35 18 6 4 11 13 11 19 -1 12 -24 -22 -25 -35 0 -5 -4 -8 -9
-7 -5 0 -13 -5 -17 -13 -5 -7 -9 -8 -9 -2 0 21 -29 10 -35 -13 -3 -12 -9 -22
-13 -22 -4 1 -22 1 -41 0 -25 -1 -32 -5 -28 -15 4 -10 1 -13 -8 -9 -8 3 -12
10 -8 17 4 6 -1 5 -10 -3 -19 -15 -23 -36 -5 -25 7 5 8 3 4 -5 -5 -7 -14 -10
-22 -7 -8 3 -14 0 -14 -7 0 -8 -4 -6 -10 3 -9 14 -11 13 -14 -10 0 -5 -4 -9
-8 -7 -4 1 -14 -7 -23 -18 -12 -16 -14 -17 -9 -2 3 9 1 17 -5 17 -6 0 -11 -7
-11 -16 0 -14 -3 -14 -15 -4 -13 11 -14 10 -10 -1 4 -10 -4 -14 -32 -14 -33 0
-38 -3 -35 -21 2 -16 -4 -23 -23 -26 -14 -3 -25 -1 -25 4 0 5 -5 6 -10 3 -8
-5 -8 -11 0 -20 17 -20 -14 -38 -59 -33 -22 2 -37 0 -35 -4 2 -3 -6 -14 -18
-22 -12 -9 -18 -16 -14 -16 5 0 18 8 28 17 16 14 18 14 13 1 -9 -22 -52 -41
-59 -25 -3 9 -5 8 -5 -1 -1 -7 -5 -11 -10 -7 -5 3 -18 -6 -29 -20 -11 -14 -29
-25 -41 -25 -15 0 -21 -6 -21 -22 0 -19 2 -20 11 -8 8 11 10 12 7 1 -2 -8 -17
-15 -32 -17 -22 -2 -26 0 -17 9 6 6 11 15 11 20 0 5 -12 -5 -26 -23 -25 -29
-27 -30 -40 -13 -13 17 -14 17 -8 1 4 -12 1 -18 -7 -18 -11 0 -11 -2 1 -10 18
-11 11 -18 -21 -23 -16 -3 -23 -10 -21 -21 3 -16 -35 -38 -50 -29 -5 2 -8 -7
-8 -21 0 -14 -5 -26 -11 -26 -5 0 -8 4 -5 8 3 5 -1 9 -9 9 -8 0 -12 -4 -10 -8
3 -4 -2 -9 -10 -13 -8 -3 -15 0 -15 6 0 6 -3 9 -6 5 -3 -3 -2 -12 2 -19 15
-23 13 -37 -4 -31 -10 4 -13 2 -8 -5 4 -7 -2 -8 -24 -2 -16 5 -31 7 -31 4 -1
-2 -2 -10 -3 -16 -1 -7 -7 -12 -14 -11 -7 2 -9 -4 -5 -14 4 -11 3 -14 -5 -9
-8 5 -10 2 -6 -8 8 -21 -6 -20 -22 2 -13 16 -14 16 -7 -2 5 -14 3 -17 -7 -11
-9 5 -11 4 -6 -4 4 -6 11 -9 16 -6 11 7 7 -22 -5 -32 -4 -4 -5 -2 0 6 5 9 3
12 -6 9 -8 -3 -13 -11 -11 -17 2 -8 -3 -9 -16 -2 -14 7 -18 6 -19 -9 -1 -13 3
-17 15 -14 15 5 15 4 -1 -6 -9 -6 -22 -8 -27 -5 -6 3 -10 2 -10 -4 0 -5 -12
-8 -27 -6 -16 2 -22 2 -15 -1 14 -7 16 -50 2 -59 -5 -3 -7 0 -4 9 6 16 -19 17
-33 1 -4 -4 -1 -5 7 -1 8 4 6 0 -4 -8 -11 -9 -14 -16 -7 -16 7 0 9 -4 6 -10
-3 -5 -16 -10 -28 -10 -16 0 -23 -6 -24 -21 -1 -12 -7 -27 -14 -33 -9 -8 -10
-7 -4 4 8 13 6 13 -7 2 -9 -7 -18 -9 -20 -5 -3 4 -3 3 -2 -4 2 -7 -3 -25 -11
-40 -8 -15 -15 -22 -15 -15 0 6 -8 12 -17 11 -11 0 -13 -3 -5 -6 6 -2 12 -9
12 -14 0 -6 -4 -8 -9 -4 -5 3 -12 1 -16 -5 -3 -5 0 -10 7 -10 8 0 6 -5 -5 -11
-9 -6 -14 -15 -11 -21 4 -7 2 -8 -4 -4 -6 4 -9 13 -5 21 3 8 0 15 -7 15 -6 0
-8 -4 -5 -10 3 -5 1 -10 -5 -10 -6 0 -8 -4 -5 -10 3 -5 2 -10 -2 -10 -5 0 -9
-9 -10 -21 -2 -25 -22 -51 -34 -43 -8 4 -14 -25 -10 -48 0 -5 -4 -8 -10 -8 -6
0 -9 6 -6 14 3 8 -1 22 -9 33 -14 17 -14 16 -4 -4 9 -19 8 -23 -7 -23 -14 0
-15 -2 -4 -9 10 -6 10 -10 1 -13 -6 -2 -13 -15 -13 -29 -1 -14 -7 -26 -14 -26
-7 0 -10 4 -7 8 2 4 -1 11 -7 15 -8 4 -9 3 -5 -4 4 -7 3 -12 -1 -12 -8 0 -13
-18 -16 -62 -1 -15 -3 -15 -20 2 -22 25 -31 26 -18 2 6 -11 6 -24 1 -33 -9
-13 -13 -15 -44 -18 -11 -1 -14 -13 -13 -45 2 -35 -1 -43 -13 -41 -18 4 -44
-14 -48 -33 -1 -8 1 -11 5 -9 5 3 8 -5 8 -18 0 -13 -4 -23 -10 -22 -5 1 -9 -3
-8 -9 1 -6 -5 -11 -12 -11 -10 0 -12 4 -5 12 5 7 6 16 2 20 -4 5 -1 5 6 1 6
-4 12 -2 12 4 0 7 -6 10 -12 7 -7 -2 -12 -10 -11 -16 2 -6 -2 -11 -7 -11 -6 0
-10 -11 -10 -25 0 -14 -4 -25 -10 -25 -5 0 -10 -5 -10 -11 0 -5 5 -7 12 -3 7
4 8 3 4 -5 -4 -6 -12 -8 -18 -5 -7 4 -8 -2 -3 -17 7 -23 7 -24 -9 -4 -15 19
-16 19 -13 -15 1 -26 -2 -34 -12 -32 -12 3 -12 1 -1 -13 7 -9 9 -15 4 -14 -5
1 -20 1 -34 -1 -23 -1 -23 -2 -5 -10 17 -7 17 -9 3 -9 -11 -1 -15 -6 -12 -16
4 -8 1 -22 -6 -30 -12 -14 -7 -19 13 -16 5 1 5 -4 2 -10 -5 -7 -10 -8 -18 0
-7 7 -14 5 -24 -7 -13 -15 -13 -15 -3 5 5 12 15 25 20 28 6 3 10 12 10 18 0 8
-3 7 -9 -2 -5 -7 -13 -11 -18 -8 -5 3 -9 -2 -10 -11 -2 -26 -8 -46 -17 -61 -6
-10 -5 -12 2 -7 7 4 12 2 12 -3 0 -6 -7 -12 -15 -12 -29 -3 -33 -4 -42 -13 -5
-5 -3 -6 5 -2 6 4 12 3 12 -3 0 -5 -8 -15 -17 -20 -10 -6 -12 -11 -5 -11 6 0
12 -12 12 -26 0 -21 -4 -25 -19 -21 -14 3 -18 1 -14 -10 3 -8 0 -13 -7 -11 -7
2 -14 -5 -15 -14 -2 -10 1 -18 7 -18 6 0 7 8 3 18 -5 14 -4 15 7 4 11 -11 10
-16 -5 -27 -13 -10 -15 -14 -5 -18 11 -4 11 -6 0 -6 -7 -1 -10 -6 -6 -13 5 -8
2 -9 -9 -5 -20 8 -21 3 -6 -26 12 -21 11 -21 -8 -4 -16 14 -20 14 -20 2 0 -8
4 -12 9 -9 4 3 8 1 8 -5 0 -5 -4 -11 -9 -13 -6 -1 -11 -24 -12 -50 -3 -48 -6
-52 -44 -49 -18 1 -19 0 -3 -12 15 -12 15 -14 0 -25 -11 -8 -12 -10 -2 -6 12
6 13 4 3 -6 -10 -11 -10 -17 0 -29 9 -12 4 -11 -18 3 l-30 19 24 -26 c22 -25
13 -32 -18 -13 -9 6 -12 5 -7 -2 3 -6 2 -14 -4 -17 -8 -5 -7 -11 1 -21 9 -11
9 -14 0 -14 -7 0 -9 -5 -6 -10 4 -6 12 -8 18 -4 7 3 4 -1 -5 -9 -10 -8 -15
-17 -12 -20 3 -3 -5 -18 -19 -33 -14 -15 -23 -33 -20 -40 3 -8 -1 -14 -8 -14
-12 0 -12 -2 0 -9 9 -6 10 -14 5 -22 -13 -22 -14 -70 0 -62 7 4 7 1 -1 -7 -9
-9 -9 -19 -2 -33 8 -13 8 -17 1 -13 -6 3 -17 -3 -25 -14 -7 -11 -17 -17 -20
-13 -8 8 -8 9 -10 -99 -1 -77 -3 -86 -19 -85 -10 1 -18 5 -18 10 0 5 7 6 16 3
13 -5 14 -4 6 7 -7 8 -10 16 -7 19 3 2 -1 5 -8 5 -9 0 -13 -11 -12 -29 1 -15
-3 -28 -9 -28 -5 0 -1 -7 10 -16 10 -8 13 -12 5 -8 -11 5 -13 0 -9 -24 2 -17
1 -29 -3 -26 -4 2 -11 0 -14 -6 -4 -6 -1 -9 6 -8 6 2 14 -3 16 -9 3 -7 0 -13
-6 -13 -5 0 -7 -10 -5 -22 6 -24 6 -30 1 -65 -4 -31 -14 -38 -31 -24 -12 10
-14 7 -9 -19 3 -25 1 -30 -9 -24 -7 4 -4 -3 7 -16 11 -13 14 -20 7 -16 -11 7
-13 -6 -10 -63 1 -39 -1 -71 -5 -71 -5 0 -5 -5 -2 -10 4 -6 1 -18 -7 -27 -8
-10 -8 -14 -1 -10 8 5 11 -4 10 -32 -1 -22 -5 -37 -9 -35 -5 3 -8 0 -8 -5 0
-6 6 -11 13 -11 8 0 7 -4 -3 -10 -13 -9 -13 -11 0 -20 8 -5 11 -10 5 -10 -15
0 -30 13 -33 28 -1 8 2 11 9 6 8 -4 9 -3 5 4 -16 26 -22 8 -23 -63 0 -53 3
-73 11 -68 7 4 7 2 -1 -8 -9 -11 -11 -81 -10 -256 1 -133 4 -237 8 -231 4 7 9
7 13 -1 4 -6 12 -9 17 -6 5 4 9 -1 9 -10 0 -12 -6 -15 -20 -10 -11 4 -20 2
-20 -4 0 -6 3 -10 7 -10 25 4 33 -4 33 -32 0 -20 -4 -28 -12 -23 -7 5 -8 3 -4
-5 5 -7 15 -10 24 -6 14 5 14 4 0 -12 -21 -23 -23 -34 -6 -44 11 -7 10 -11 -2
-19 -14 -9 -7 -15 14 -11 5 1 4 -5 -3 -13 -8 -9 -11 -24 -8 -35 2 -10 0 -26
-6 -36 -6 -12 -6 -16 1 -11 14 9 33 -19 26 -38 -3 -9 -2 -16 3 -16 12 0 13 31
3 45 -5 6 -2 15 5 22 10 9 12 5 10 -20 -1 -18 3 -38 9 -46 9 -12 8 -13 -3 -6
-11 6 -13 4 -8 -8 4 -10 1 -17 -6 -17 -9 0 -9 -3 1 -9 14 -8 15 -21 10 -83 -2
-21 0 -38 4 -38 5 0 8 -5 8 -11 0 -5 -5 -7 -11 -3 -8 4 -8 1 -1 -12 5 -11 7
-26 5 -34 -4 -13 -3 -13 5 -1 6 8 8 20 5 27 -2 6 0 15 5 18 6 3 9 -15 8 -43
-1 -31 3 -47 10 -44 6 2 11 -2 11 -9 1 -7 2 -34 4 -60 2 -39 5 -46 16 -36 11
9 12 7 7 -7 -6 -14 -4 -16 7 -10 11 7 12 6 2 -7 -7 -8 -9 -19 -5 -23 4 -5 1
-5 -6 -1 -7 4 -10 12 -7 17 4 5 1 9 -4 9 -17 0 -13 -27 5 -34 9 -3 12 -11 8
-18 -4 -8 -3 -10 2 -5 5 5 10 13 10 18 1 5 2 14 3 20 0 5 6 7 12 3 6 -3 7 -9
3 -13 -12 -8 -14 -41 -3 -41 5 0 4 -11 -1 -25 -8 -21 -6 -25 8 -26 11 0 12 -2
4 -6 -10 -4 -10 -8 0 -21 8 -10 9 -13 1 -9 -7 5 -10 1 -8 -10 2 -10 4 -21 4
-24 1 -4 9 -10 18 -13 15 -6 15 -4 -2 14 -10 11 -13 20 -7 20 7 0 12 -5 12
-11 0 -5 5 -7 10 -4 6 4 10 3 9 -2 -1 -4 0 -12 1 -18 1 -5 1 -27 0 -49 -1 -29
1 -36 12 -30 10 6 11 5 1 -7 -13 -16 -14 -61 -2 -53 4 2 12 -4 18 -13 6 -11
11 -13 11 -5 0 7 5 10 12 6 7 -5 5 -11 -7 -21 -11 -7 -13 -13 -6 -13 7 0 9 -5
5 -12 -5 -7 -3 -8 6 -3 9 5 10 2 6 -13 -6 -18 -3 -20 17 -16 22 3 25 0 24 -23
0 -58 3 -74 15 -67 7 5 8 3 2 -7 -14 -23 -13 -39 3 -39 13 0 13 3 3 15 -11 13
-10 14 4 9 10 -4 15 -12 12 -19 -2 -7 3 -23 11 -36 9 -12 12 -19 6 -16 -7 4
-10 0 -8 -10 2 -10 4 -22 4 -26 1 -5 7 -5 14 -2 6 4 3 -1 -7 -9 -23 -18 -14
-21 15 -5 11 5 17 15 13 22 -4 7 -1 6 7 -2 11 -10 11 -15 2 -18 -19 -7 -16
-23 5 -23 16 -1 16 -1 -1 -11 -14 -8 -16 -14 -6 -25 6 -7 15 -11 20 -8 5 3 9
0 9 -5 0 -6 -4 -11 -9 -11 -6 0 -9 -9 -8 -19 0 -11 5 -17 11 -14 5 4 7 -1 3
-9 -3 -10 0 -15 11 -14 12 1 16 -6 15 -21 -2 -13 2 -23 8 -23 5 0 7 5 3 12 -4
7 -3 8 5 4 9 -6 9 -11 0 -22 -10 -13 -6 -18 14 -15 4 0 7 -4 7 -11 0 -6 10 -3
22 8 17 14 19 15 10 2 -8 -9 -12 -27 -11 -40 2 -13 -1 -30 -5 -38 -5 -8 4 -4
20 10 16 14 26 21 22 16 -4 -5 -3 -15 3 -23 6 -7 8 -13 3 -13 -5 0 -2 -5 6
-11 13 -9 13 -10 0 -6 -8 2 -14 10 -12 16 2 9 -3 9 -18 1 -22 -12 -27 -22 -7
-14 8 3 20 -2 27 -10 7 -9 17 -13 22 -10 6 4 3 -5 -7 -19 -12 -19 -13 -27 -4
-33 8 -4 9 -3 5 4 -5 8 0 11 13 9 28 -4 30 -7 32 -54 2 -27 9 -44 22 -53 10
-6 16 -7 13 -1 -4 5 2 9 13 8 11 0 17 -6 13 -12 -18 -28 -9 -40 27 -35 13 1
13 -1 2 -14 -10 -12 -10 -16 -2 -16 7 0 9 -4 6 -10 -3 -5 0 -10 7 -10 14 0 58
-75 59 -100 0 -10 3 -8 9 5 8 18 9 18 9 2 1 -10 5 -16 10 -13 5 3 11 -1 14 -8
4 -9 -1 -17 -11 -19 -12 -3 -11 -5 6 -6 12 0 22 -6 22 -12 0 -5 -4 -8 -8 -5
-5 3 -9 -1 -9 -8 0 -15 21 -15 34 -1 4 4 2 5 -4 1 -9 -5 -11 -2 -6 9 4 13 8
14 14 4 4 -7 6 -16 3 -20 -2 -4 2 -10 8 -12 10 -4 10 -6 0 -6 -10 -1 -9 -5 3
-17 13 -14 14 -19 3 -25 -10 -7 -8 -9 6 -9 12 0 16 5 13 15 -4 8 -1 17 5 21 7
4 8 3 4 -4 -4 -7 -3 -12 3 -12 6 0 9 -14 7 -30 -2 -22 2 -33 15 -40 25 -14 42
-12 33 3 -4 6 -3 8 2 4 4 -4 9 -22 9 -40 1 -27 5 -32 23 -31 17 1 22 -4 22
-22 0 -16 7 -24 22 -26 12 -2 23 -9 26 -17 3 -8 0 -11 -7 -7 -18 12 -13 2 11
-18 18 -16 20 -16 15 -2 -4 10 -3 15 3 11 6 -3 10 -16 11 -28 1 -20 2 -20 9 3
7 23 8 23 10 -10 1 -19 2 -39 1 -43 -1 -5 3 -6 9 -2 6 3 8 10 5 15 -3 5 0 12
6 16 8 4 9 3 5 -4 -4 -7 -1 -12 7 -12 18 0 30 -27 17 -35 -19 -12 -10 -26 11
-20 16 5 20 4 15 -6 -4 -8 0 -5 8 5 12 15 16 16 16 5 0 -8 -6 -21 -12 -28 -11
-10 -10 -11 5 -5 13 4 16 2 12 -9 -5 -11 0 -13 19 -10 21 4 24 2 22 -21 -2
-17 1 -25 8 -23 6 3 10 10 8 16 -1 7 2 10 7 6 6 -3 8 -12 5 -19 -3 -9 2 -13
17 -12 14 1 23 -5 25 -17 1 -9 -2 -15 -7 -11 -5 3 -6 10 -3 16 4 7 2 8 -4 4
-14 -9 -4 -36 13 -36 7 0 16 6 18 13 4 8 6 7 6 -3 1 -8 11 -20 23 -25 13 -6
27 -19 33 -30 6 -11 17 -21 25 -23 8 -2 20 -8 25 -13 7 -7 4 -8 -7 -4 -11 5
-18 2 -18 -5 0 -8 11 -11 31 -8 33 5 62 -22 52 -49 -4 -11 2 -12 28 -8 32 6
33 5 14 -9 -22 -16 -2 -17 25 -1 11 6 11 4 -2 -11 -16 -18 -15 -20 7 -31 22
-10 24 -9 14 8 -6 13 -6 19 1 19 5 0 10 -7 10 -16 0 -8 5 -12 11 -8 8 5 8 1 0
-14 -8 -15 -7 -23 3 -31 17 -14 29 -2 15 16 -9 9 -8 13 0 13 6 0 11 -5 11 -11
0 -5 4 -8 9 -5 4 3 7 -7 5 -22 l-3 -27 19 22 c13 17 19 19 23 9 3 -7 0 -19 -6
-26 -9 -10 -9 -11 1 -6 7 5 12 1 12 -11 0 -15 2 -16 10 -3 6 10 10 11 10 3 0
-7 5 -13 11 -13 5 0 7 4 4 10 -3 6 1 7 10 4 19 -7 14 -30 -5 -26 -11 3 -11 0
0 -13 7 -8 15 -13 18 -10 3 3 12 -1 20 -8 13 -10 14 -9 3 13 l-12 25 20 -23
c14 -16 27 -21 46 -18 14 3 23 1 20 -5 -4 -5 -11 -7 -16 -4 -5 4 -9 1 -9 -4 0
-6 5 -11 11 -11 5 0 7 -5 4 -10 -3 -5 -1 -10 4 -10 6 0 11 5 11 10 0 6 5 10
12 10 6 0 8 -3 5 -7 -10 -10 13 -33 33 -33 10 0 20 6 23 13 3 6 4 2 4 -10 -1
-12 -4 -20 -8 -17 -4 2 -10 0 -13 -5 -7 -11 13 -9 33 3 10 6 12 5 7 -2 -4 -7
-2 -13 3 -13 6 -1 15 -2 20 -3 5 0 13 -5 18 -10 5 -5 2 -6 -6 -1 -9 5 -12 4
-7 -3 4 -6 14 -8 24 -5 15 6 16 5 2 -12 -14 -17 -13 -18 3 -12 9 4 25 10 35
13 14 5 15 4 2 -5 -12 -9 -11 -11 10 -11 20 0 22 -2 10 -10 -8 -5 -10 -10 -5
-10 6 0 16 5 23 12 9 9 12 7 12 -9 0 -12 -5 -24 -10 -26 -6 -3 -5 -4 2 -3 7 2
21 -1 32 -6 11 -6 16 -6 13 -1 -3 5 4 8 16 7 12 -1 29 -3 37 -4 10 -1 11 -3 3
-7 -7 -2 -13 -9 -13 -14 0 -6 4 -8 9 -5 5 3 11 -4 14 -16 5 -18 8 -19 21 -8 9
7 16 8 16 3 0 -5 15 -8 33 -7 l32 2 -25 -21 c-14 -11 -18 -18 -9 -14 9 3 22 0
28 -6 6 -6 11 -7 11 -1 0 5 5 2 10 -6 6 -10 10 -11 10 -2 0 20 26 13 37 -10
l10 -23 7 22 c7 21 8 21 26 6 15 -14 17 -20 7 -31 -10 -13 -8 -14 12 -7 21 6
23 5 17 -11 -4 -14 0 -12 15 6 11 14 18 19 14 13 -3 -7 -1 -13 5 -13 6 0 8 -5
4 -12 -5 -7 -3 -8 7 -2 8 5 28 9 44 10 17 1 24 -1 17 -3 -6 -3 -9 -10 -6 -15
4 -6 2 -8 -3 -5 -6 4 -13 1 -16 -6 -3 -9 4 -12 24 -11 16 1 29 -1 29 -5 0 -4
23 -6 50 -5 53 1 69 -8 52 -29 -13 -16 37 -20 56 -5 9 8 11 7 7 -3 -4 -11 5
-14 40 -12 42 2 45 0 39 -19 -5 -17 -3 -19 15 -13 12 3 21 3 20 -2 -4 -22 3
-25 17 -7 8 10 13 13 9 6 -5 -9 3 -12 29 -9 20 3 39 0 42 -4 3 -5 10 -9 15 -9
6 0 7 5 3 11 -5 8 -1 8 13 0 11 -6 24 -7 28 -3 5 4 5 1 1 -6 -4 -7 -12 -10
-17 -7 -5 4 -17 2 -26 -4 -14 -7 -8 -9 24 -6 31 3 45 -1 52 -12 5 -10 16 -14
29 -11 12 3 23 1 26 -6 3 -7 5 -7 5 2 1 7 5 11 9 8 5 -3 38 -6 73 -7 39 -1 70
-7 81 -16 11 -10 18 -11 23 -4 3 6 1 11 -6 11 -7 0 -10 3 -6 6 3 3 16 -2 29
-11 13 -10 16 -15 6 -12 -9 3 -19 1 -21 -6 -3 -9 -7 -9 -19 0 -12 10 -15 10
-15 -2 0 -8 2 -13 5 -10 3 2 13 0 23 -5 11 -7 20 -7 24 0 3 5 13 6 22 3 12 -5
14 -3 8 8 -7 11 -6 12 6 3 8 -6 42 -11 76 -10 58 1 62 0 57 -19 -4 -15 -3 -16
4 -6 6 8 17 11 27 7 15 -5 16 -4 6 8 -11 13 -8 14 18 6 18 -5 33 -5 36 1 4 5
15 4 28 -3 12 -7 25 -11 30 -10 4 1 7 -2 7 -8 0 -14 -7 -13 -34 6 -25 16 -44
5 -30 -17 4 -7 1 -10 -7 -7 -8 3 -13 11 -11 17 1 6 -2 11 -8 11 -14 0 -12 -16
3 -27 15 -13 660 -16 653 -4 -3 5 2 15 12 22 15 13 16 12 3 -3 -7 -10 -12 -18
-10 -19 37 -7 39 -6 35 15 -3 16 1 22 15 22 10 0 19 -4 19 -8 0 -4 -7 -8 -15
-8 -9 0 -12 -6 -8 -16 5 -13 7 -13 14 -2 5 7 9 8 9 3 0 -18 56 -14 67 5 9 13
8 17 -3 17 -7 0 -10 -5 -7 -11 4 -6 -2 -4 -13 4 -18 14 -18 14 -4 -5 14 -19
14 -19 -4 -5 -16 12 -18 12 -11 1 5 -9 4 -12 -3 -7 -22 13 -1 34 31 32 18 -2
35 1 38 6 3 6 9 2 12 -7 5 -10 3 -14 -5 -9 -7 4 -8 3 -4 -4 12 -20 29 -13 23
9 -4 15 -2 18 7 10 9 -7 16 -7 24 1 9 9 12 9 12 -3 0 -12 2 -12 10 1 5 8 10
10 10 4 0 -16 39 -12 50 6 9 13 10 13 10 0 0 -9 9 -15 24 -15 19 0 22 3 14 13
-8 9 -7 11 6 6 14 -6 21 5 17 29 0 4 3 7 9 7 13 0 13 -6 0 -30 -12 -23 13 -36
30 -15 6 8 18 11 26 8 8 -3 14 0 14 6 0 6 5 11 11 11 5 0 8 -4 5 -8 -3 -5 1
-9 8 -9 19 0 16 24 -3 24 -9 0 -22 -4 -28 -10 -7 -5 -13 -6 -13 -2 0 5 -9 0
-20 -10 -12 -11 -20 -13 -20 -6 0 6 7 14 15 17 8 4 13 9 11 13 -2 3 16 7 40 7
26 1 44 -3 44 -10 0 -6 4 -5 9 3 6 9 24 14 45 13 22 -1 36 3 36 11 0 8 4 6 10
-3 13 -20 46 0 42 26 -2 15 -1 16 7 5 6 -10 6 -22 0 -35 -10 -20 -9 -20 5 -3
8 10 17 18 21 17 4 -1 10 2 13 6 4 4 0 4 -8 -1 -8 -4 -6 1 5 12 11 11 22 16
23 11 2 -4 9 -5 14 -2 7 4 8 2 4 -5 -4 -6 -13 -8 -19 -5 -7 4 -8 3 -4 -1 9
-11 39 -16 33 -6 -3 4 -1 13 5 21 7 12 9 12 9 1 0 -9 4 -10 13 -3 6 5 22 8 35
6 27 -5 50 14 45 36 -4 12 -3 12 5 1 6 -8 12 -10 16 -3 4 6 25 9 47 8 33 -3
39 -1 34 13 -5 13 -4 14 6 4 7 -7 17 -13 22 -13 4 0 5 6 1 13 -6 9 -3 8 8 -1
13 -10 22 -11 38 -2 17 9 20 30 4 30 -3 0 -3 -4 0 -9 10 -16 -19 -19 -39 -5
-10 8 -14 14 -9 14 6 0 16 -6 23 -12 11 -11 13 -10 8 3 -4 12 1 15 21 14 15
-1 33 3 40 8 10 8 16 7 23 -4 8 -13 13 -6 10 14 -1 4 7 3 18 -2 15 -8 20 -7
25 5 3 9 4 19 1 23 -2 4 2 8 10 8 18 0 18 -3 5 -27 -7 -14 -6 -18 5 -16 8 1
18 6 22 11 4 4 2 5 -4 1 -15 -9 -17 3 -3 24 6 10 10 11 10 3 0 -7 5 -13 10
-13 7 0 7 8 -1 23 -9 18 -9 20 2 10 20 -20 50 -16 42 5 -5 14 -3 14 10 -3 13
-16 17 -17 31 -6 9 7 16 18 16 24 0 6 -7 2 -15 -9 -8 -10 -15 -14 -15 -8 0 21
25 35 39 21 10 -9 11 -8 5 8 -7 17 -6 18 8 7 11 -9 18 -10 23 -2 4 6 15 8 26
5 21 -7 27 10 7 18 -8 3 -5 6 5 6 12 1 16 6 11 14 -4 6 -4 9 1 5 4 -4 14 -3
22 3 9 9 13 8 13 0 0 -8 6 -9 18 -3 9 5 22 7 29 5 6 -2 14 1 18 6 3 6 11 11
16 11 6 0 7 -5 3 -12 -4 -7 -3 -8 4 -4 6 4 9 13 6 21 -5 11 -11 12 -27 4 -20
-9 -20 -9 -5 4 10 8 14 18 10 23 -4 4 0 3 8 -3 10 -7 21 -8 30 -3 9 5 19 5 26
-1 8 -7 14 -6 19 1 3 6 10 8 14 6 3 -3 7 4 7 14 0 10 -4 17 -7 14 -4 -2 -10 0
-13 5 -3 5 8 7 24 6 17 -1 30 1 30 4 0 4 17 6 38 5 20 -1 31 0 25 3 -7 2 -13
11 -13 19 0 10 -5 12 -12 8 -8 -5 -7 -1 2 10 14 17 15 17 31 -3 14 -17 18 -18
23 -5 4 10 2 13 -6 8 -7 -4 -8 -3 -4 5 4 6 18 9 32 7 13 -3 22 -1 19 4 -3 5 3
14 12 20 16 10 16 10 -4 5 -12 -3 -24 -2 -26 2 -3 4 8 9 24 10 17 1 29 -3 29
-10 0 -9 3 -8 9 1 4 7 12 12 17 10 5 -2 19 4 32 13 19 14 20 17 7 23 -10 4
-14 2 -9 -6 5 -7 3 -8 -6 -3 -9 6 -11 4 -5 -6 5 -8 4 -10 0 -6 -25 22 -11 33
42 33 30 -1 57 3 61 8 3 5 0 6 -6 2 -7 -4 -12 -3 -12 2 0 5 -11 8 -25 7 -14
-2 -23 0 -20 4 2 4 18 7 35 6 30 -2 30 -1 13 19 -10 12 -11 15 -3 9 19 -18 33
-16 26 3 -4 10 -2 13 7 7 20 -12 34 -12 34 3 0 7 -3 11 -7 9 -4 -2 -7 2 -7 10
0 8 5 11 10 8 5 -3 14 1 19 8 7 10 8 6 4 -13 -3 -15 -2 -29 3 -32 5 -3 9 0 8
7 -1 34 5 47 26 57 21 10 21 10 3 -4 -18 -14 -18 -15 4 -13 18 1 21 6 18 29
-5 29 9 33 29 8 11 -13 12 -12 6 4 -4 13 -3 17 5 12 7 -4 12 -2 12 4 0 6 4 8
10 5 6 -3 7 1 4 9 -3 9 -11 13 -18 9 -6 -3 -8 -2 -3 2 4 5 16 10 27 12 14 2
18 -1 13 -14 -5 -12 0 -10 15 5 25 25 30 41 7 22 -13 -11 -14 -10 -9 4 4 11
14 15 33 11 25 -4 25 -4 6 12 -16 13 -17 15 -2 10 9 -4 17 -3 17 2 0 4 10 7
23 7 17 -1 23 5 25 26 3 22 8 27 30 25 27 -2 38 20 17 35 -6 5 -3 8 8 8 23 0
32 -4 29 -12 -1 -5 3 -8 9 -8 6 0 9 7 5 15 -3 8 -1 15 3 15 5 0 7 8 4 19 -3
10 0 22 6 25 6 4 11 -1 12 -11 0 -11 3 -13 6 -5 2 6 10 9 15 6 6 -4 8 -2 4 4
-3 6 -1 14 5 17 5 4 8 13 5 21 -4 10 2 14 18 14 13 0 30 8 37 17 10 11 10 14
2 9 -7 -4 -13 -2 -13 3 0 6 5 11 11 11 5 0 8 4 5 8 -3 5 2 9 10 9 9 0 13 -6 9
-16 -4 -11 -1 -10 15 4 21 19 27 31 11 21 -5 -3 -11 1 -15 9 -3 8 0 17 6 21 7
4 8 3 4 -4 -4 -7 -2 -12 3 -12 6 0 11 5 11 10 0 6 5 10 11 10 5 0 7 -4 4 -10
-3 -5 -1 -10 6 -10 7 0 10 12 7 34 -3 24 0 32 9 29 7 -3 16 3 19 12 4 9 9 12
13 7 4 -6 14 -4 26 5 15 12 16 14 3 10 -9 -3 -19 0 -21 8 -4 9 2 12 19 10 19
-2 24 1 19 13 -4 11 -2 12 8 4 11 -9 13 -7 12 11 -3 32 4 40 23 25 13 -11 15
-11 9 4 -4 13 -1 16 15 13 17 -4 19 -2 10 7 -7 7 -12 16 -12 22 0 5 3 6 7 3 3
-4 12 1 20 11 12 16 13 16 6 -3 -6 -17 -5 -18 9 -5 15 14 15 17 0 33 -15 17
-15 17 3 11 12 -5 16 -4 11 4 -5 8 -2 10 9 5 19 -7 35 12 30 37 -3 13 3 17 24
15 22 -2 27 2 27 21 0 12 -5 20 -10 18 -6 -3 -4 0 4 8 9 7 14 21 12 32 -3 16
-2 17 11 5 8 -8 12 -18 9 -24 -3 -5 -1 -6 3 -2 9 8 14 26 18 63 1 12 9 21 17
21 41 0 43 2 29 20 -12 14 -12 16 0 8 11 -6 13 -4 8 8 -4 11 -1 17 8 17 8 0
15 5 15 11 0 5 -4 8 -9 4 -5 -3 -13 -1 -16 5 -4 6 -3 10 2 9 20 -3 27 2 13 11
-11 8 -6 9 18 5 18 -3 32 -1 32 5 0 5 -8 10 -17 11 -14 0 -13 2 5 9 12 5 22
12 22 15 0 4 -4 3 -10 0 -5 -3 -10 -1 -10 4 0 6 14 11 31 11 27 0 30 2 19 15
-7 8 -8 15 -3 15 5 0 9 10 8 23 -3 27 3 39 16 31 6 -4 6 -10 0 -18 -8 -9 -7
-13 3 -13 9 0 13 8 10 24 -3 17 -1 22 7 17 9 -5 10 -2 6 9 -3 9 -2 19 3 22 5
3 6 13 3 21 -5 14 -3 15 17 4 12 -7 20 -7 16 -2 -3 6 0 13 6 16 8 3 7 5 -2 3
-16 -2 -20 3 -20 26 0 8 3 7 10 -3 10 -17 17 -13 22 15 2 13 -2 19 -11 17 -11
-2 -12 0 -3 11 7 8 24 13 38 11 14 -1 23 0 21 3 -3 3 -2 16 4 30 6 16 6 22 -1
18 -7 -4 -7 2 -1 18 6 14 7 28 3 32 -4 4 3 3 15 -4 26 -13 44 -14 23 -1 -11 7
-11 10 -2 10 7 0 12 8 11 17 -3 33 1 42 21 48 11 4 18 11 15 16 -4 5 -1 9 5 9
7 0 7 7 -1 23 -12 21 -11 21 6 7 17 -14 18 -13 9 5 -13 27 -11 61 4 57 7 -1
12 3 12 9 0 7 9 9 21 6 15 -4 18 -2 10 7 -6 7 -8 16 -5 19 4 3 6 25 6 49 -1
23 2 38 6 32 15 -21 37 -9 35 19 -1 15 2 25 7 22 10 -6 8 14 -3 32 -4 6 -3 14
3 18 6 3 8 16 6 28 -2 13 5 33 15 46 10 13 19 19 19 14 0 -5 -5 -14 -11 -20
-7 -7 -6 -12 3 -16 15 -5 19 17 21 104 1 36 5 46 17 44 21 -3 38 23 34 56 -3
24 0 27 18 24 11 -3 17 -1 14 3 -4 4 -13 7 -19 7 -7 0 -11 11 -9 25 1 14 3 31
4 38 2 17 6 15 19 -9 9 -17 8 -20 -2 -14 -8 6 -10 4 -4 -5 6 -9 4 -11 -5 -5
-8 5 -11 4 -6 -3 4 -6 13 -9 21 -6 15 6 16 29 1 53 -6 10 -5 12 2 7 16 -10 15
7 0 23 -10 11 -10 13 0 7 8 -5 12 1 12 18 0 13 -6 27 -12 29 -9 4 -7 6 3 6 12
1 16 12 15 48 -1 41 2 48 19 50 15 2 16 1 5 -5 -20 -10 -21 -38 -1 -38 12 0
16 11 17 43 0 27 -4 40 -10 36 -6 -4 -5 1 2 10 8 9 11 21 8 26 -4 5 -2 13 4
16 6 4 7 12 3 18 -14 19 -1 114 18 131 9 8 10 8 5 -1 -5 -9 -2 -11 8 -7 12 5
13 8 3 18 -7 7 -19 15 -27 18 -10 3 -8 6 8 10 12 4 20 3 17 -2 -3 -4 1 -10 9
-13 11 -5 13 0 6 22 -4 16 -4 34 0 42 11 17 2 31 -13 23 -7 -3 -5 1 4 8 12 10
14 19 8 36 -5 14 -5 21 0 17 5 -3 12 -1 16 5 3 5 1 10 -4 10 -6 0 -11 9 -11
21 0 11 5 17 10 14 6 -3 10 -1 10 4 0 6 -4 11 -8 11 -4 0 -8 15 -8 34 0 19 4
32 8 30 4 -3 8 0 8 5 0 6 -5 11 -12 11 -6 0 -9 2 -6 5 10 10 39 -7 31 -19 -14
-19 -9 -59 7 -63 13 -4 13 -3 0 6 -9 7 -11 14 -5 19 14 10 15 115 1 124 -8 6
-8 8 1 8 9 0 12 78 12 310 0 224 -3 310 -12 310 -8 0 -8 3 0 11 6 6 9 18 6 25
-9 25 -19 15 -19 -20 0 -19 4 -33 7 -30 4 2 6 -8 5 -22 -3 -28 -33 -55 -33
-30 0 8 6 12 14 9 13 -5 9 19 -7 42 -4 6 -6 18 -5 27 2 10 -1 21 -6 24 -6 3
-5 11 2 20 6 8 8 14 3 14 -5 0 -2 5 6 10 10 6 11 10 3 10 -7 0 -13 9 -13 21 0
11 4 18 8 15 5 -3 9 1 9 9 0 8 -4 12 -8 10 -4 -3 -9 9 -11 25 -3 17 0 30 6 31
6 0 2 4 -9 9 -18 7 -19 8 -3 15 10 4 15 11 12 16 -3 5 -9 7 -13 5 -4 -3 -8 1
-8 9 0 8 4 12 9 9 4 -3 8 2 8 11 0 10 -6 15 -13 12 -8 -3 -20 -1 -28 5 -11 8
-10 9 4 4 9 -3 17 -1 17 5 0 6 4 8 9 4 5 -3 12 -1 16 4 3 5 -2 14 -11 19 -11
6 -13 11 -5 16 6 4 11 12 11 19 0 6 -6 3 -13 -8 -19 -25 -37 -11 -33 25 2 17
0 48 -4 70 -4 23 -3 40 2 40 5 0 6 4 3 10 -11 18 -14 50 -4 50 5 0 4 9 -3 20
-7 11 -20 20 -28 20 -12 -1 -12 -3 3 -14 22 -17 22 -21 -3 -23 -20 -2 -23 18
-7 45 5 6 4 12 -1 12 -5 0 -9 6 -9 13 -1 6 -2 40 -3 74 -3 51 -6 60 -19 56
-12 -3 -11 0 3 11 11 9 15 16 9 16 -7 0 -19 -7 -28 -16 -14 -15 -15 -14 -10
15 3 17 1 31 -4 31 -10 0 -7 32 4 50 9 14 -8 12 -25 -2 -8 -7 -4 0 10 16 19
22 21 28 8 23 -21 -7 -23 3 -5 23 6 8 2 6 -11 -4 -12 -11 -25 -16 -29 -13 -3
4 -2 7 4 7 16 0 23 25 11 41 -8 11 -9 11 -4 -3 3 -10 2 -19 -3 -22 -7 -4 -12
39 -14 106 0 15 -4 25 -9 22 -4 -3 -8 0 -8 5 0 6 -5 11 -11 11 -5 0 -7 -4 -4
-10 3 -5 2 -10 -3 -10 -6 0 -13 7 -16 16 -3 8 -2 13 3 10 5 -3 11 3 14 14 3
11 2 19 -2 18 -19 -2 -24 3 -11 12 12 8 12 10 1 10 -11 0 -11 3 0 17 10 12 11
15 1 9 -9 -6 -11 -1 -8 18 3 14 -1 29 -7 32 -7 4 -9 4 -5 -1 4 -4 1 -14 -7
-21 -17 -18 -22 -18 -22 1 0 8 4 12 9 9 4 -3 8 0 8 5 0 6 -8 11 -17 11 -17 1
-17 1 0 14 17 14 24 32 8 21 -5 -3 -12 -1 -16 5 -4 6 -10 8 -15 5 -4 -3 -6 5
-2 17 5 21 6 21 13 2 6 -13 7 -9 5 14 -3 19 -8 37 -12 40 -4 4 -5 -1 -1 -10 3
-9 0 -19 -8 -22 -17 -6 -29 10 -19 26 4 6 -2 18 -12 26 -17 13 -17 14 -1 8 13
-4 16 -2 10 7 -8 12 -13 32 -15 54 -1 7 -4 10 -8 8 -13 -8 -30 12 -32 38 -2
25 -29 45 -51 39 -5 -1 -5 2 -2 8 4 6 13 9 21 6 8 -3 14 -1 14 4 0 6 -9 10
-20 10 -14 0 -18 5 -13 17 5 12 3 14 -8 8 -9 -5 -8 -1 3 11 12 13 14 24 8 34
-9 13 -10 13 -11 0 -1 -8 -1 -18 0 -22 0 -5 -4 -8 -10 -8 -6 0 -9 7 -6 15 4 8
2 17 -3 20 -4 3 -10 -1 -13 -7 -2 -7 -5 3 -5 22 -2 62 -10 83 -33 86 -5 1 -13
2 -19 3 -12 1 -9 23 5 33 6 5 3 8 -7 8 -9 0 -18 -3 -21 -7 -2 -5 -2 -3 -1 4 2
7 -3 19 -11 27 -11 11 -12 16 -2 20 6 4 3 5 -9 2 -12 -2 -21 2 -21 10 0 7 4
11 8 8 4 -2 7 5 6 16 -1 20 -17 29 -17 10 0 -6 -6 -5 -14 2 -12 11 -11 14 3
20 13 5 12 7 -6 7 -16 1 -21 6 -18 20 2 14 -1 18 -15 14 -10 -3 -21 1 -25 8
-5 8 -4 10 3 5 7 -4 12 -2 12 3 0 6 -8 11 -17 12 -16 0 -15 1 1 8 19 7 19 8
-1 13 -12 3 -26 1 -33 -6 -8 -8 -9 -6 -4 7 3 10 12 16 20 13 8 -3 12 2 11 14
-1 15 -4 17 -16 7 -11 -9 -13 -9 -8 0 4 6 -5 20 -20 32 -16 12 -23 20 -18 19
6 -2 11 2 12 7 1 6 -9 9 -22 7 -27 -4 -32 7 -12 27 10 10 9 12 -3 9 -8 -2 -14
3 -12 10 1 9 -7 11 -30 7 -27 -4 -29 -3 -15 6 9 5 15 15 11 21 -4 6 2 8 17 4
21 -6 22 -5 6 4 -13 9 -22 9 -32 0 -11 -9 -12 -7 -8 8 2 11 0 23 -6 26 -5 4
-9 12 -7 19 1 7 1 9 -1 4 -3 -4 -9 -4 -15 -1 -5 4 -2 -5 7 -20 10 -14 13 -26
9 -26 -9 0 -34 47 -34 63 0 5 -6 15 -14 23 -11 11 -16 11 -19 1 -3 -7 -6 -5
-6 6 -1 9 -6 17 -12 17 -8 0 -8 4 0 14 8 10 8 16 -3 25 -10 8 -16 9 -21 1 -3
-5 -11 -10 -16 -10 -6 0 -7 5 -4 10 3 6 2 10 -3 10 -6 0 -8 9 -5 20 4 15 0 20
-15 20 -11 0 -23 -6 -26 -12 -3 -7 -2 0 1 16 5 26 4 28 -13 22 -15 -6 -17 -5
-6 5 17 18 15 34 -3 19 -10 -9 -15 -9 -15 -1 0 6 -8 11 -17 12 -15 0 -15 2 2
9 17 7 17 9 2 9 -9 1 -16 4 -16 9 5 28 -3 32 -20 11 l-20 -24 6 24 c5 19 3 22
-8 16 -12 -8 -12 -6 0 8 12 15 11 17 -3 17 -9 0 -16 4 -16 9 0 5 -12 7 -27 5
-25 -5 -26 -4 -11 8 16 12 12 41 -6 39 -25 -4 -35 2 -38 22 -2 16 -9 21 -26
20 -13 -2 -21 1 -18 6 3 5 -1 12 -10 15 -13 5 -14 9 -4 21 11 13 8 15 -16 16
-16 1 -33 1 -37 0 -5 -1 -6 3 -2 9 3 5 1 10 -5 10 -6 0 -8 5 -4 11 5 8 9 8 14
-1 4 -7 10 -8 13 -3 4 6 -5 15 -19 22 -15 6 -23 7 -19 1 9 -15 -5 -12 -22 5
-12 12 -18 13 -29 4 -8 -7 -17 -9 -21 -5 -3 3 -1 6 6 6 8 0 11 7 7 15 -4 13
-2 13 14 5 13 -7 21 -7 26 2 4 7 3 8 -4 4 -7 -4 -12 -2 -12 5 0 7 -11 10 -30
7 -16 -3 -30 -1 -30 4 0 5 -5 6 -10 3 -6 -4 -10 -3 -9 2 5 29 -2 45 -19 41
-27 -7 -48 28 -30 49 12 14 11 15 -9 5 -15 -8 -24 -9 -28 -2 -5 8 -12 7 -22
-2 -15 -12 -15 -11 -3 9 8 12 19 19 25 16 5 -3 4 0 -2 7 -16 17 -57 25 -48 9
4 -6 14 -8 22 -5 8 3 11 2 8 -3 -3 -6 -14 -9 -25 -8 -10 1 -17 4 -15 7 2 3 0
12 -5 20 -7 12 -12 12 -22 2 -17 -17 -31 -15 -24 3 3 8 -3 19 -12 25 -16 11
-16 11 0 6 10 -3 20 0 24 6 4 7 -7 9 -34 6 -22 -2 -39 -1 -36 1 7 7 -18 31
-26 26 -5 -3 -12 0 -16 6 -4 8 -3 9 4 5 7 -4 12 -1 12 9 0 9 -4 14 -9 10 -5
-3 -12 -1 -16 5 -4 7 -14 6 -28 -2 -20 -10 -21 -10 -8 6 12 15 12 16 -5 9 -17
-6 -18 -5 -4 11 13 17 11 18 -25 14 -36 -3 -40 0 -43 21 -3 16 0 21 9 16 8 -6
10 -4 4 5 -6 10 -11 9 -21 -5 -8 -10 -17 -16 -20 -12 -4 4 -1 15 7 24 12 16
12 17 -1 7 -23 -17 -65 -2 -63 23 2 18 -3 21 -45 20 -37 0 -48 3 -50 17 -2 10
5 24 15 32 17 14 16 14 -5 4 -18 -9 -27 -8 -38 1 -9 7 -14 8 -14 1 0 -6 5 -12
12 -14 9 -3 9 -6 0 -12 -7 -4 -12 -2 -12 4 0 6 -4 9 -9 5 -6 -3 -8 4 -6 15 3
14 0 18 -8 13 -20 -12 -38 -12 -36 0 1 7 1 21 -1 32 l-1 20 -9 -20 c-5 -11 -9
-14 -9 -7 -1 7 -7 12 -13 11 -7 -1 -22 -1 -33 0 -17 1 -18 3 -5 11 8 5 11 10
6 10 -5 0 -17 -7 -27 -16 -13 -12 -19 -12 -25 -3 -4 7 -3 10 3 6 6 -4 13 2 16
13 3 11 2 18 -3 15 -4 -3 -13 2 -20 10 -10 12 -16 13 -26 4 -10 -8 -14 -8 -14
0 0 6 -5 11 -11 11 -5 0 -8 -4 -4 -9 3 -6 -4 -8 -15 -6 -29 6 -41 15 -34 26 3
6 12 3 21 -8 13 -17 13 -16 3 5 -6 12 -15 20 -20 17 -5 -3 -11 -1 -15 5 -4 6
-10 8 -15 5 -5 -3 -16 3 -26 12 -17 17 -17 17 -11 -7 6 -23 5 -24 -8 -6 -8 10
-12 23 -9 27 3 5 -2 6 -11 2 -13 -5 -14 -7 -3 -14 9 -6 5 -8 -12 -6 -17 3 -25
10 -25 23 0 10 -6 18 -12 17 -7 -2 -13 2 -13 9 0 9 -3 9 -12 0 -15 -15 -32
-16 -22 -1 4 8 0 8 -15 0 -13 -7 -21 -8 -21 -2 0 5 -9 8 -20 6 -24 -5 -36 11
-21 29 8 10 6 13 -12 12 -12 -1 -27 -5 -34 -9 -6 -4 -14 -3 -18 3 -3 5 -19 10
-34 10 -24 0 -66 29 -59 41 2 2 1 3 -1 2 -2 -2 -10 2 -18 9 -11 9 -15 7 -20
-10 -3 -12 -9 -22 -14 -22 -5 0 -5 7 -2 17 4 11 3 14 -5 9 -7 -4 -12 -2 -12 6
0 9 -3 9 -10 -2 -8 -13 -10 -13 -10 -1 0 11 -3 12 -11 4 -8 -8 -20 -8 -35 -3
-15 6 -26 5 -30 -1 -4 -6 -11 -6 -20 2 -11 9 -14 9 -14 -1 0 -8 -3 -10 -6 -7
-4 4 -1 13 6 22 16 19 6 19 -23 0 -21 -13 -23 -13 -23 4 0 10 6 18 13 18 7 0
9 -5 6 -10 -3 -6 -1 -7 5 -3 23 14 12 24 -25 24 -116 0 -164 3 -158 11 3 5 1
12 -5 16 -6 4 -7 11 -4 17 4 7 2 8 -5 4 -9 -6 -9 -11 0 -22 14 -17 15 -16 -37
-18 -35 -2 -40 1 -36 16 2 10 8 15 13 12 5 -3 7 -9 5 -13 -3 -4 6 -7 18 -7 20
0 22 3 13 18 -7 11 -14 13 -18 7 -5 -8 -9 -8 -13 0 -4 6 -12 9 -17 5 -5 -3
-16 -1 -24 6 -15 13 -24 3 -19 -23 1 -11 -1 -16 -4 -12 -7 6 -8 10 -11 38 -1
7 -4 8 -9 2 -4 -5 -18 -10 -32 -10 -14 0 -28 5 -32 10 -5 7 -8 6 -8 0 0 -6 -9
-11 -20 -11 -11 0 -20 4 -20 9 0 5 -7 4 -16 -4 -10 -8 -18 -9 -22 -3 -4 6 -16
11 -27 11 -11 1 -27 3 -35 5 -9 2 -14 -3 -12 -12 3 -12 0 -12 -14 2 -16 16
-18 16 -31 0 -12 -16 -13 -15 -6 2 5 15 3 17 -8 11 -11 -6 -12 -5 -1 6 6 7 12
16 12 20 0 3 -111 7 -246 8 -171 2 -244 -1 -239 -8z m80 -10 c3 -5 2 -12 -3
-15 -5 -3 -9 1 -9 9 0 17 3 19 12 6z m355 -6 c5 3 11 1 14 -4 4 -5 -2 -8 -11
-7 -9 2 -18 8 -19 15 -1 6 0 7 3 1 2 -5 9 -8 13 -5z m-417 -10 c-3 -9 -8 -14
-10 -11 -3 3 -2 9 2 15 9 16 15 13 8 -4z m-353 -35 c0 -5 -4 -10 -10 -10 -5 0
-10 5 -10 10 0 6 5 10 10 10 6 0 10 -4 10 -10z m34 2 c3 -5 -1 -9 -9 -9 -8 0
-12 4 -9 9 3 4 7 8 9 8 2 0 6 -4 9 -8z m1103 -24 c-3 -8 -6 -5 -6 6 -1 11 2
17 5 13 3 -3 4 -12 1 -19z m-1644 -92 c7 4 8 3 4 -1 -7 -9 -37 -16 -37 -10 0
2 3 12 7 22 7 17 8 17 11 0 2 -10 8 -14 15 -11z m2167 -7 c10 -18 10 -19 -8
-10 -11 6 -22 7 -26 4 -3 -3 -6 -1 -6 5 0 9 6 14 27 21 1 1 7 -8 13 -20z
m-2339 -36 c-12 -20 -14 -14 -5 12 4 9 9 14 11 11 3 -2 0 -13 -6 -23z m2474 7
c-3 -5 -12 -10 -18 -10 -7 0 -6 4 3 10 19 12 23 12 15 0z m-2601 -47 c-9 -7
-21 -10 -26 -7 -14 9 -1 20 22 20 20 0 20 -1 4 -13z m2726 -3 c0 -5 -5 -10
-11 -10 -5 0 -7 5 -4 10 3 6 8 10 11 10 2 0 4 -4 4 -10z m143 -65 c-3 -8 -10
-15 -15 -15 -7 0 -6 5 1 13 6 8 7 18 3 22 -4 5 -2 5 5 1 7 -4 10 -13 6 -21z
m115 -28 c8 -10 6 -13 -11 -14 -12 0 -16 1 -9 4 6 3 10 9 6 14 -8 14 2 11 14
-4z m-3218 -21 c0 -3 -4 -8 -10 -11 -5 -3 -10 -1 -10 4 0 6 5 11 10 11 6 0 10
-2 10 -4z m3340 -43 c0 -1 -8 -7 -18 -12 -13 -7 -19 -6 -19 2 0 7 9 13 19 13
10 0 18 -1 18 -3z m-3648 -101 c9 -9 9 -12 0 -12 -7 0 -12 5 -12 11 0 5 -4 8
-9 4 -5 -3 -12 -1 -15 4 -8 13 22 7 36 -7z m-256 -155 c1 -7 -7 -14 -17 -14
-22 -2 -24 8 -7 25 13 13 21 9 24 -11z m-148 -92 c-13 -28 -23 -32 -31 -11 -4
10 -1 13 7 10 7 -3 16 2 19 10 4 9 9 16 11 16 3 0 0 -11 -6 -25z m-266 -205
c-9 -11 -18 -17 -20 -15 -3 3 0 11 6 18 7 8 9 17 5 21 -4 4 0 4 9 1 15 -6 15
-8 0 -25z m5255 -95 c0 -8 -4 -12 -9 -9 -5 3 -6 10 -3 15 9 13 12 11 12 -6z
m-5662 -315 c3 -5 1 -10 -4 -10 -6 0 -11 5 -11 10 0 6 2 10 4 10 3 0 8 -4 11
-10z m6189 -258 c2 -4 1 -14 -3 -21 -6 -9 -11 -10 -15 -2 -4 6 -1 11 6 11 9 0
9 3 -2 10 -9 6 -10 10 -3 10 6 0 14 -4 17 -8z m-6412 -30 c-7 -2 -10 -8 -7
-13 4 -5 -2 -6 -11 -2 -13 5 -15 3 -9 -8 5 -8 4 -11 0 -6 -16 14 -14 36 3 30
10 -4 13 -2 8 5 -5 8 -1 10 10 5 11 -4 13 -8 6 -11z m-72 -92 c0 -5 -2 -10 -4
-10 -3 0 -8 5 -11 10 -3 6 -1 10 4 10 6 0 11 -4 11 -10z m6706 -211 c2 -13 0
-18 -2 -11 -3 6 -11 9 -16 6 -7 -4 -8 -2 -4 4 3 6 -2 15 -11 21 -16 9 -15 10
6 8 17 -3 25 -11 27 -28z m-6952 -195 c3 -8 2 -12 -4 -9 -6 3 -10 1 -10 -4 0
-6 -5 -11 -10 -11 -6 0 -5 8 2 20 15 24 14 24 22 4z m7040 0 c3 -8 2 -12 -4
-9 -6 3 -10 10 -10 16 0 14 7 11 14 -7z m53 -74 c3 -10 2 -11 -4 -4 -4 6 -15
14 -23 17 -11 5 -9 6 4 4 11 -1 21 -9 23 -17z m-7127 -14 c0 -3 -4 -8 -10 -11
-5 -3 -10 -1 -10 4 0 6 5 11 10 11 6 0 10 -2 10 -4z m-171 -362 c4 3 7 -4 8
-14 2 -18 1 -18 -16 -2 -10 9 -15 21 -13 27 3 5 7 4 10 -3 2 -7 7 -10 11 -8z
m-32 -113 c-1 -12 -6 -17 -17 -13 -11 4 -10 -1 5 -19 l20 -24 -23 19 c-21 18
-21 20 -6 38 21 23 23 23 21 -1z m7640 -377 c-3 -3 -12 -4 -19 -1 -8 3 -5 6 6
6 11 1 17 -2 13 -5z m-7752 -74 c-3 -5 -12 -10 -18 -10 -7 0 -6 4 3 10 19 12
23 12 15 0z m7795 -138 c0 -5 -7 -9 -15 -9 -8 0 -15 4 -15 9 0 4 7 8 15 8 8 0
15 -4 15 -8z m-7839 -67 c3 2 5 -6 6 -18 0 -12 -1 -16 -4 -9 -4 10 -8 10 -21
0 -15 -11 -15 -11 -5 3 10 12 10 18 0 29 -10 12 -9 12 4 2 9 -6 18 -10 20 -7z
m-61 -375 c0 -5 -4 -10 -10 -10 -5 0 -10 5 -10 10 0 6 5 10 10 10 6 0 10 -4
10 -10z m13 -25 c-3 -9 -8 -14 -10 -11 -3 3 -2 9 2 15 9 16 15 13 8 -4z m7947
-29 c0 -3 -4 -8 -10 -11 -5 -3 -10 -1 -10 4 0 6 5 11 10 11 6 0 10 -2 10 -4z
m-7960 -400 c0 -3 -4 -8 -10 -11 -5 -3 -10 -1 -10 4 0 6 5 11 10 11 6 0 10 -2
10 -4z m12 -34 c-7 -2 -12 -8 -12 -13 0 -6 6 -7 13 -3 9 6 9 4 -1 -8 -7 -9 -9
-18 -5 -20 4 -3 1 -3 -7 -1 -11 2 -10 -1 3 -11 11 -8 14 -17 8 -20 -5 -4 -13
-1 -18 6 -10 16 -11 78 -1 72 5 -3 8 0 8 6 0 6 5 8 12 4 9 -6 9 -9 0 -12z
m7940 -44 c-9 -9 -9 -15 1 -26 10 -13 9 -14 -10 -2 -20 13 -20 15 -5 27 21 16
30 17 14 1z m-7915 -280 c-3 -8 -6 -5 -6 6 -1 11 2 17 5 13 3 -3 4 -12 1 -19z
m13 -22 c0 -3 -4 -8 -10 -11 -5 -3 -10 -1 -10 4 0 6 5 11 10 11 6 0 10 -2 10
-4z m54 -224 c3 -5 -1 -9 -9 -9 -8 0 -15 4 -15 9 0 4 4 8 9 8 6 0 12 -4 15 -8z
m16 -87 c0 -8 -2 -15 -4 -15 -2 0 -6 7 -10 15 -3 8 -1 15 4 15 6 0 10 -7 10
-15z m126 -470 c-3 -9 0 -15 10 -15 8 0 12 -5 9 -10 -10 -16 -35 8 -28 26 3 8
7 14 10 14 3 0 3 -7 -1 -15z m7411 -152 c0 -10 -4 -10 -16 -1 -9 7 -18 13 -20
15 -2 1 5 1 16 0 11 0 20 -7 20 -14z m-47 -73 c0 -5 -5 -10 -11 -10 -5 0 -7 5
-4 10 3 6 8 10 11 10 2 0 4 -4 4 -10z m-66 -138 c7 -12 -12 -38 -21 -28 -4 5
-2 11 6 14 11 4 11 6 0 13 -9 6 -10 9 -2 9 6 0 14 -4 17 -8z m-7087 -89 c-4
-3 1 -12 11 -20 15 -13 15 -13 -5 -3 -24 11 -31 30 -11 30 6 0 8 -3 5 -7z
m6994 -106 c-10 -9 -11 -8 -5 6 3 10 9 15 12 12 3 -3 0 -11 -7 -18z m-6801
-227 c0 -5 -4 -10 -10 -10 -5 0 -10 5 -10 10 0 6 5 10 10 10 6 0 10 -4 10 -10z
m6541 -167 c13 -16 12 -17 -3 -4 -10 7 -18 15 -18 17 0 8 8 3 21 -13z m-87
-145 c-3 -5 -11 -5 -18 1 -7 6 -17 7 -21 3 -5 -4 -5 -2 -2 5 4 6 16 9 27 6 11
-3 17 -9 14 -15z m-69 -27 c3 -5 2 -12 -3 -15 -5 -3 -9 1 -9 9 0 17 3 19 12 6z
m-6088 -65 c0 -8 -6 -12 -15 -9 -11 5 -11 7 0 14 7 5 13 9 14 9 0 0 1 -6 1
-14z m68 -64 c-3 -3 -11 0 -18 7 -9 10 -8 11 6 5 10 -3 15 -9 12 -12z m5549
-390 c3 -5 -1 -9 -9 -9 -8 0 -12 4 -9 9 3 4 7 8 9 8 2 0 6 -4 9 -8z m-57 -47
c0 -8 -4 -12 -9 -9 -5 3 -6 10 -3 15 9 13 12 11 12 -6z m-4156 -548 c-10 -9
-11 -8 -5 6 3 10 9 15 12 12 3 -3 0 -11 -7 -18z m-21 -7 c0 -5 -2 -10 -4 -10
-3 0 -8 5 -11 10 -3 6 -1 10 4 10 6 0 11 -4 11 -10z m285 -100 c3 -5 1 -10 -4
-10 -6 0 -11 5 -11 10 0 6 2 10 4 10 3 0 8 -4 11 -10z m246 -93 c-10 -9 -11
-8 -5 6 3 10 9 15 12 12 3 -3 0 -11 -7 -18z m53 15 c2 -4 -5 -9 -17 -9 -17 -2
-19 0 -7 7 18 12 18 12 24 2z m204 -67 c-3 -3 -9 2 -12 12 -6 14 -5 15 5 6 7
-7 10 -15 7 -18z m-28 0 c7 -9 8 -15 2 -15 -5 0 -12 7 -16 15 -3 8 -4 15 -2
15 2 0 9 -7 16 -15z m535 -105 c3 -6 -1 -7 -9 -4 -18 7 -21 14 -7 14 6 0 13
-4 16 -10z m88 3 c3 -5 -6 -9 -20 -10 -19 -1 -22 1 -12 8 17 11 26 11 32 2z"/>
<path d="M5396 9354 c-4 -10 -4 -15 0 -11 4 4 13 2 20 -4 16 -13 26 2 13 21
-7 13 -9 13 -9 0 0 -12 -2 -12 -9 -2 -6 11 -10 10 -15 -4z"/>
<path d="M5453 9360 c2 -8 14 -16 28 -17 19 -1 20 -1 4 4 -11 3 -24 10 -28 17
-6 7 -7 6 -4 -4z"/>
<path d="M6037 9247 c-9 -23 8 -30 24 -10 8 9 9 14 2 10 -6 -4 -13 -2 -15 5
-3 8 -7 6 -11 -5z"/>
<path d="M6250 9200 c0 -5 5 -10 11 -10 5 0 7 5 4 10 -3 6 -8 10 -11 10 -2 0
-4 -4 -4 -10z"/>
<path d="M3843 9145 c0 -8 4 -12 9 -9 5 3 6 10 3 15 -9 13 -12 11 -12 -6z"/>
<path d="M6386 9142 c-3 -5 1 -9 9 -9 8 0 15 4 15 9 0 4 -4 8 -9 8 -6 0 -12
-4 -15 -8z"/>
<path d="M3467 8999 c7 -7 15 -10 18 -7 3 3 -2 9 -12 12 -14 6 -15 5 -6 -5z"/>
<path d="M3300 8920 c0 -5 -8 -7 -17 -3 -10 3 -15 3 -12 -1 4 -4 16 -8 27 -11
15 -2 19 0 15 11 -6 16 -13 19 -13 4z"/>
<path d="M3150 8840 c0 -5 5 -10 11 -10 5 0 7 5 4 10 -3 6 -8 10 -11 10 -2 0
-4 -4 -4 -10z"/>
<path d="M3074 8809 c-3 -6 -2 -15 3 -20 5 -5 9 -1 9 11 0 23 -2 24 -12 9z"/>
<path d="M3100 8789 c0 -5 5 -7 10 -4 6 3 10 8 10 11 0 2 -4 4 -10 4 -5 0 -10
-5 -10 -11z"/>
<path d="M7311 8716 c-9 -10 -7 -17 6 -27 16 -12 17 -12 6 2 -10 12 -10 18 -1
27 7 7 9 12 6 12 -3 0 -11 -6 -17 -14z"/>
<path d="M7383 8633 c0 -9 4 -10 14 -2 7 6 13 12 13 14 0 1 -6 2 -13 2 -8 0
-14 -6 -14 -14z"/>
<path d="M7535 8540 c3 -5 8 -10 11 -10 2 0 4 5 4 10 0 6 -5 10 -11 10 -5 0
-7 -4 -4 -10z"/>
<path d="M7587 8489 c7 -7 15 -10 18 -7 3 3 -2 9 -12 12 -14 6 -15 5 -6 -5z"/>
<path d="M2580 8440 c0 -5 7 -7 15 -4 8 4 15 8 15 10 0 2 -7 4 -15 4 -8 0 -15
-4 -15 -10z"/>
<path d="M7915 8241 c-3 -5 -2 -12 3 -15 5 -3 9 1 9 9 0 17 -3 19 -12 6z"/>
<path d="M2081 7956 c-8 -10 -9 -16 -1 -21 5 -3 13 1 16 10 9 22 -1 29 -15 11z"/>
<path d="M1905 7740 c-3 -6 1 -7 9 -4 18 7 21 14 7 14 -6 0 -13 -4 -16 -10z"/>
<path d="M8506 7497 c3 -10 9 -15 12 -12 3 3 0 11 -7 18 -10 9 -11 8 -5 -6z"/>
<path d="M1690 7416 c0 -2 7 -7 16 -10 8 -3 12 -2 9 4 -6 10 -25 14 -25 6z"/>
<path d="M1676 7397 c3 -10 9 -15 12 -12 3 3 0 11 -7 18 -10 9 -11 8 -5 -6z"/>
<path d="M1436 6911 c-4 -6 -3 -18 2 -27 8 -15 10 -14 16 2 8 20 -8 42 -18 25z"/>
<path d="M8936 6513 c-6 -14 -5 -15 5 -6 7 7 10 15 7 18 -3 3 -9 -2 -12 -12z"/>
<path d="M1278 6483 c6 -2 12 -9 12 -14 0 -6 -4 -8 -8 -5 -4 2 -9 -4 -9 -15
-2 -23 10 -25 27 -4 10 12 10 18 0 30 -7 8 -18 15 -24 14 -7 0 -6 -2 2 -6z"/>
<path d="M8980 6366 c0 -2 8 -10 18 -17 15 -13 16 -12 3 4 -13 16 -21 21 -21
13z"/>
<path d="M1220 6306 c0 -3 9 -10 20 -16 11 -6 20 -8 20 -6 0 3 -9 10 -20 16
-11 6 -20 8 -20 6z"/>
<path d="M9033 6088 c-2 -18 0 -20 7 -8 12 18 13 30 2 30 -4 0 -9 -10 -9 -22z"/>
<path d="M1173 6045 c0 -8 4 -12 9 -9 5 3 6 10 3 15 -9 13 -12 11 -12 -6z"/>
<path d="M1194 6029 c-3 -6 -2 -15 3 -20 5 -5 9 -1 9 11 0 23 -2 24 -12 9z"/>
<path d="M9106 5797 c3 -10 9 -15 12 -12 3 3 0 11 -7 18 -10 9 -11 8 -5 -6z"/>
<path d="M9081 5776 c-9 -11 -9 -16 1 -22 7 -4 10 -4 6 1 -4 4 -3 14 3 22 6 7
9 13 6 13 -2 0 -10 -6 -16 -14z"/>
<path d="M1135 5711 c5 -18 4 -22 -5 -16 -9 5 -11 4 -6 -4 6 -9 11 -9 22 0 8
7 11 15 7 18 -4 4 -12 11 -17 16 -5 6 -5 0 -1 -14z"/>
<path d="M9043 4683 c-10 -3 -9 -8 2 -19 8 -8 11 -22 8 -32 -3 -9 -3 -14 1
-11 10 9 17 69 8 68 -4 0 -13 -3 -19 -6z"/>
<path d="M9026 4633 c-6 -14 -5 -15 5 -6 7 7 10 15 7 18 -3 3 -9 -2 -12 -12z"/>
<path d="M8985 4400 c-3 -6 1 -7 9 -4 18 7 21 14 7 14 -6 0 -13 -4 -16 -10z"/>
<path d="M8996 4382 c-3 -5 1 -9 9 -9 8 0 12 4 9 9 -3 4 -7 8 -9 8 -2 0 -6 -4
-9 -8z"/>
<path d="M8889 4108 c-11 -36 6 -47 30 -20 12 12 11 13 -9 7 -15 -5 -20 -4
-16 4 4 6 5 11 2 11 -3 0 -6 -1 -7 -2z"/>
<path d="M8834 3952 c2 -9 6 -16 10 -15 23 6 24 9 7 20 -16 10 -19 9 -17 -5z"/>
<path d="M1445 3852 c-13 -9 -17 -32 -6 -32 5 0 11 9 14 20 6 22 6 22 -8 12z"/>
<path d="M8793 3785 c0 -8 4 -12 9 -9 5 3 6 10 3 15 -9 13 -12 11 -12 -6z"/>
<path d="M8750 3700 c0 -5 5 -10 11 -10 5 0 7 5 4 10 -3 6 -8 10 -11 10 -2 0
-4 -4 -4 -10z"/>
<path d="M1476 3678 c3 -5 10 -6 15 -3 13 9 11 12 -6 12 -8 0 -12 -4 -9 -9z"/>
<path d="M8395 3101 c-3 -5 -2 -12 3 -15 5 -3 9 1 9 9 0 17 -3 19 -12 6z"/>
<path d="M1873 3036 c0 -17 3 -23 7 -16 6 9 9 9 13 -1 3 -8 6 -9 6 -3 1 5 -5
19 -13 29 -13 18 -13 17 -13 -9z"/>
<path d="M8336 2978 c3 -5 10 -6 15 -3 13 9 11 12 -6 12 -8 0 -12 -4 -9 -9z"/>
<path d="M7986 2602 c-2 -4 4 -8 14 -8 10 0 16 4 14 8 -3 4 -9 8 -14 8 -5 0
-11 -4 -14 -8z"/>
<path d="M7851 2444 c0 -11 3 -14 6 -6 3 7 2 16 -1 19 -3 4 -6 -2 -5 -13z"/>
<path d="M2520 2335 c7 -8 16 -12 21 -9 5 3 9 0 9 -7 0 -7 3 -9 6 -6 10 9 -16
37 -33 37 -13 0 -13 -3 -3 -15z"/>
<path d="M2575 2289 c-4 -6 -5 -12 -2 -15 2 -3 7 2 10 11 7 17 1 20 -8 4z"/>
<path d="M2630 2255 c-11 -13 -10 -14 6 -8 16 6 17 5 6 -9 -11 -14 -10 -16 8
-11 17 5 18 8 8 22 -7 9 -13 17 -14 19 -1 1 -7 -4 -14 -13z"/>
<path d="M3325 1811 c-3 -5 -2 -12 3 -15 5 -3 9 1 9 9 0 17 -3 19 -12 6z"/>
<path d="M6785 1750 c-8 -13 3 -30 18 -29 9 0 9 2 0 6 -7 2 -13 9 -13 14 0 4
7 6 15 3 8 -4 15 -4 15 -1 0 10 -30 16 -35 7z"/>
<path d="M3568 1693 c7 -3 16 -2 19 1 4 3 -2 6 -13 5 -11 0 -14 -3 -6 -6z"/>
<path d="M3815 1600 c-2 -3 0 -11 4 -18 5 -8 10 -6 18 7 9 14 8 18 -3 18 -8 0
-17 -3 -19 -7z"/>
<path d="M3975 1549 c-4 -6 -5 -12 -2 -15 2 -3 7 2 10 11 7 17 1 20 -8 4z"/>
<path d="M6235 1540 c-10 -11 -15 -23 -12 -27 4 -3 7 -1 7 6 0 7 6 11 13 8 7
-3 21 1 32 9 10 8 14 14 9 14 -6 0 -16 -6 -23 -12 -11 -11 -13 -10 -8 5 8 22
4 22 -18 -3z"/>
<path d="M4195 1480 c-3 -5 -1 -10 4 -10 6 0 11 5 11 10 0 6 -2 10 -4 10 -3 0
-8 -4 -11 -10z"/>
<path d="M4406 1452 c-2 -4 0 -14 6 -22 8 -12 9 -12 5 2 -3 9 -1 19 6 22 9 3
9 5 0 5 -6 1 -14 -3 -17 -7z"/>
<path d="M4674 1382 c4 -3 14 -7 22 -8 9 -1 13 0 10 4 -4 3 -14 7 -22 8 -9 1
-13 0 -10 -4z"/>
<path d="M5526 1382 c-3 -5 1 -9 9 -9 8 0 12 4 9 9 -3 4 -7 8 -9 8 -2 0 -6 -4
-9 -8z"/>
</g>
</svg>
